<?xml version="1.0" standalone="no"?>
<!DOCTYPE svg PUBLIC "-//W3C//DTD SVG 20010904//EN"
 "http://www.w3.org/TR/2001/REC-SVG-20010904/DTD/svg10.dtd">
<svg version="1.0" xmlns="http://www.w3.org/2000/svg"
 width="512.000000pt" height="512.000000pt" viewBox="0 0 512.000000 512.000000"
 preserveAspectRatio="xMidYMid meet">
<metadata>
Created by potrace 1.16, written by Peter Selinger 2001-2019
</metadata>
<g transform="translate(0.000000,512.000000) scale(0.100000,-0.100000)"
fill="#000000" stroke="none">
<path d="M174 5096 c-65 -30 -120 -85 -150 -150 l-24 -51 0 -2335 0 -2335 24
-51 c30 -65 85 -120 150 -150 l51 -24 1895 0 1895 0 51 24 c65 30 120 85 150
150 l24 51 0 428 0 429 -29 29 c-39 38 -97 40 -138 5 l-28 -24 -5 -409 c-5
-439 -5 -436 -59 -465 -37 -20 -3686 -19 -3723 1 -56 30 -53 -122 -53 2341 0
2463 -3 2311 53 2341 37 20 3686 21 3723 1 55 -29 54 -11 59 -640 l5 -584 28
-24 c41 -35 99 -33 138 5 l29 29 0 604 0 603 -24 51 c-30 65 -85 120 -150 150
l-51 24 -1895 0 -1895 0 -51 -24z"/>
<path d="M1930 4564 c-170 -36 -314 -112 -442 -233 -188 -178 -275 -371 -285
-632 -6 -154 9 -253 57 -377 83 -213 267 -408 475 -503 134 -60 204 -74 385
-74 142 0 176 3 243 23 172 50 305 130 425 257 171 180 252 385 252 635 0 262
-81 460 -265 646 -141 143 -280 220 -467 258 -95 20 -288 20 -378 0z m363
-213 c420 -108 647 -557 486 -960 -18 -45 -48 -99 -76 -140 -2 -2 -31 27 -65
64 -35 38 -97 91 -138 118 -41 27 -75 52 -74 55 0 4 11 30 24 57 22 45 25 63
25 185 0 125 -2 139 -26 190 -68 145 -234 231 -389 202 -121 -22 -220 -97
-269 -202 -24 -51 -26 -65 -26 -190 0 -122 3 -140 25 -185 13 -27 24 -53 24
-57 1 -3 -33 -28 -74 -55 -41 -27 -103 -80 -138 -118 -51 -55 -65 -66 -73 -55
-29 44 -90 183 -103 236 -23 88 -21 242 4 338 63 246 267 451 512 516 100 26
250 26 351 1z m-107 -452 c63 -30 87 -75 88 -163 0 -55 -4 -80 -20 -106 -62
-107 -206 -107 -268 -1 -15 26 -20 53 -20 101 0 86 25 136 84 167 53 28 82 29
136 2z m145 -617 c67 -32 99 -55 148 -107 34 -37 61 -74 59 -82 -5 -23 -152
-99 -238 -122 -147 -40 -347 -23 -474 40 -71 36 -126 74 -126 86 0 7 28 42 62
78 47 51 80 75 142 105 100 48 107 49 236 46 101 -2 110 -4 191 -44z"/>
<path d="M4610 3866 c-30 -6 -77 -22 -105 -36 -112 -54 -111 -51 -796 -1241
-350 -607 -639 -1112 -642 -1121 -3 -10 -27 -203 -52 -429 -49 -441 -49 -451
-1 -484 11 -8 39 -15 62 -15 46 0 53 5 508 342 l219 163 629 1090 c346 600
641 1115 656 1145 23 49 26 67 26 170 1 114 0 117 -37 192 -60 122 -166 202
-303 227 -70 13 -93 13 -164 -3z m193 -228 c23 -13 55 -42 71 -66 25 -35 31
-55 34 -110 3 -66 2 -69 -56 -172 -32 -58 -61 -105 -64 -105 -3 0 -87 47 -187
105 l-180 104 36 66 c52 94 91 148 119 166 73 48 154 52 227 12z m-265 -557
c78 -46 142 -84 142 -86 0 -6 -989 -1718 -997 -1726 -11 -10 -369 198 -365
212 1 6 226 397 499 870 l496 859 41 -23 c23 -13 105 -61 184 -106z m-1116
-1919 c53 -31 95 -59 92 -63 -2 -4 -72 -57 -154 -118 -106 -78 -150 -106 -150
-93 0 9 9 94 20 187 11 94 20 174 20 178 0 5 17 -1 38 -13 20 -12 81 -47 134
-78z"/>
<path d="M739 2391 c-64 -64 -20 -171 71 -171 78 0 124 62 100 134 -14 44 -48
66 -100 66 -33 0 -48 -6 -71 -29z"/>
<path d="M1166 2394 c-37 -38 -37 -110 0 -148 l27 -26 757 0 757 0 27 26 c21
21 26 36 26 74 0 38 -5 53 -26 74 l-27 26 -757 0 -757 0 -27 -26z"/>
<path d="M739 1831 c-64 -64 -20 -171 71 -171 52 0 86 22 100 66 24 72 -22
134 -100 134 -33 0 -48 -6 -71 -29z"/>
<path d="M1166 1834 c-37 -38 -37 -110 0 -148 l27 -26 757 0 757 0 27 26 c21
21 26 36 26 74 0 38 -5 53 -26 74 l-27 26 -757 0 -757 0 -27 -26z"/>
<path d="M739 1271 c-64 -64 -20 -171 71 -171 78 0 124 62 100 134 -14 44 -48
66 -100 66 -33 0 -48 -6 -71 -29z"/>
<path d="M1166 1274 c-37 -38 -37 -110 0 -148 l27 -26 757 0 757 0 27 26 c21
21 26 36 26 74 0 38 -5 53 -26 74 l-27 26 -757 0 -757 0 -27 -26z"/>
<path d="M2046 714 c-21 -21 -26 -36 -26 -74 0 -38 5 -53 26 -74 l27 -26 317
0 317 0 27 26 c37 38 37 110 0 148 l-27 26 -317 0 -317 0 -27 -26z"/>
</g>
</svg>
